<?xml version="1.0" encoding="UTF-8"?>
<svg id="_레이어_1" data-name="레이어 1" xmlns="http://www.w3.org/2000/svg" version="1.1" viewBox="0 0 50 50">
  <defs>
    <style>
      .cls-1, .cls-2 {
        stroke: #fff;
      }

      .cls-1, .cls-2, .cls-3, .cls-4 {
        fill: #000;
        stroke-miterlimit: 10;
      }

      .cls-1, .cls-4 {
        stroke-width: 2px;
      }

      .cls-3 {
        stroke-width: 4px;
      }

      .cls-3, .cls-4 {
        stroke: #231815;
      }

      .cls-5 {
        fill: #f37321;
        stroke-width: 0px;
      }
    </style>
  </defs>
  <g>
    <path class="cls-4" d="M7.2,18.6c.1-.7.2-.9.2-1h1.5c0,0,0,.2,0,.3.2-.2.5-.4.9-.4s.8.5.7,1.1l-.5,2.1h-1.5l.4-2c0-.2,0-.3,0-.3s-.2,0-.2.3l-.4,1.9h-1.5l.5-2.2Z"/>
    <path class="cls-4" d="M14.2,18.9c0,.5-.2,1.9-2,1.9s-1.6-.6-1.6-1.4.5-2,2-2,1.6.7,1.6,1.4ZM12.1,19.7c0,.2,0,.3.2.3.3,0,.5-1.2.5-1.4s0-.3-.2-.3c-.3,0-.5,1.2-.5,1.4Z"/>
    <path class="cls-4" d="M18.1,18.9c0,.5-.2,1.9-2,1.9s-1.6-.6-1.6-1.4.5-2,2-2,1.6.7,1.6,1.4ZM16,19.7c0,.2,0,.3.2.3.3,0,.5-1.2.5-1.4s0-.3-.2-.3c-.3,0-.5,1.2-.5,1.4Z"/>
    <path class="cls-4" d="M18.6,18.6c.1-.7.2-.9.2-1h1.5c0,0,0,.2,0,.3.2-.2.5-.4.9-.4s.8.5.7,1.1l-.5,2.1h-1.5l.4-2c0-.2,0-.3,0-.3s-.2,0-.2.3l-.4,1.9h-1.5l.5-2.2Z"/>
    <path class="cls-4" d="M25.2,19.8c0,.4-.2.8-.2,1h-1.4c0,0,0-.1,0-.3-.3.3-.5.3-.9.3s-.8-.3-.8-.9.2-1.1,1.3-1.3c.3,0,.6,0,.8,0v-.2c0-.2,0-.2,0-.2-.2,0-.2,0-.3.2h-1.3c.1-.5.5-1,1.7-1s1.6.5,1.4,1.2l-.2,1ZM23.9,19.3s-.1,0-.2,0c-.2,0-.3.2-.3.4s0,.2.1.2c.2,0,.3-.2.3-.5h0Z"/>
  </g>
  <g>
    <path class="cls-2" d="M7.2,18.6c.1-.7.2-.9.2-1h1.5c0,0,0,.2,0,.3.2-.2.5-.4.9-.4s.8.5.7,1.1l-.5,2.1h-1.5l.4-2c0-.2,0-.3,0-.3s-.2,0-.2.3l-.4,1.9h-1.5l.5-2.2Z"/>
    <path class="cls-2" d="M14.2,18.9c0,.5-.2,1.9-2,1.9s-1.6-.6-1.6-1.4.5-2,2-2,1.6.7,1.6,1.4ZM12.1,19.7c0,.2,0,.3.2.3.3,0,.5-1.2.5-1.4s0-.3-.2-.3c-.3,0-.5,1.2-.5,1.4Z"/>
    <path class="cls-2" d="M18.1,18.9c0,.5-.2,1.9-2,1.9s-1.6-.6-1.6-1.4.5-2,2-2,1.6.7,1.6,1.4ZM16,19.7c0,.2,0,.3.2.3.3,0,.5-1.2.5-1.4s0-.3-.2-.3c-.3,0-.5,1.2-.5,1.4Z"/>
    <path class="cls-2" d="M18.6,18.6c.1-.7.2-.9.2-1h1.5c0,0,0,.2,0,.3.2-.2.5-.4.9-.4s.8.5.7,1.1l-.5,2.1h-1.5l.4-2c0-.2,0-.3,0-.3s-.2,0-.2.3l-.4,1.9h-1.5l.5-2.2Z"/>
    <path class="cls-2" d="M25.2,19.8c0,.4-.2.8-.2,1h-1.4c0,0,0-.1,0-.3-.3.3-.5.3-.9.3s-.8-.3-.8-.9.2-1.1,1.3-1.3c.3,0,.6,0,.8,0v-.2c0-.2,0-.2,0-.2-.2,0-.2,0-.3.2h-1.3c.1-.5.5-1,1.7-1s1.6.5,1.4,1.2l-.2,1ZM23.9,19.3s-.1,0-.2,0c-.2,0-.3.2-.3.4s0,.2.1.2c.2,0,.3-.2.3-.5h0Z"/>
  </g>
  <g>
    <path class="cls-5" d="M7.2,18.6c.1-.7.2-.9.2-1h1.5c0,0,0,.2,0,.3.2-.2.5-.4.9-.4s.8.5.7,1.1l-.5,2.1h-1.5l.4-2c0-.2,0-.3,0-.3s-.2,0-.2.3l-.4,1.9h-1.5l.5-2.2Z"/>
    <path class="cls-5" d="M14.2,18.9c0,.5-.2,1.9-2,1.9s-1.6-.6-1.6-1.4.5-2,2-2,1.6.7,1.6,1.4ZM12.1,19.7c0,.2,0,.3.2.3.3,0,.5-1.2.5-1.4s0-.3-.2-.3c-.3,0-.5,1.2-.5,1.4Z"/>
    <path class="cls-5" d="M18.1,18.9c0,.5-.2,1.9-2,1.9s-1.6-.6-1.6-1.4.5-2,2-2,1.6.7,1.6,1.4ZM16,19.7c0,.2,0,.3.2.3.3,0,.5-1.2.5-1.4s0-.3-.2-.3c-.3,0-.5,1.2-.5,1.4Z"/>
    <path class="cls-5" d="M18.6,18.6c.1-.7.2-.9.2-1h1.5c0,0,0,.2,0,.3.2-.2.5-.4.9-.4s.8.5.7,1.1l-.5,2.1h-1.5l.4-2c0-.2,0-.3,0-.3s-.2,0-.2.3l-.4,1.9h-1.5l.5-2.2Z"/>
    <path class="cls-5" d="M25.2,19.8c0,.4-.2.8-.2,1h-1.4c0,0,0-.1,0-.3-.3.3-.5.3-.9.3s-.8-.3-.8-.9.2-1.1,1.3-1.3c.3,0,.6,0,.8,0v-.2c0-.2,0-.2,0-.2-.2,0-.2,0-.3.2h-1.3c.1-.5.5-1,1.7-1s1.6.5,1.4,1.2l-.2,1ZM23.9,19.3s-.1,0-.2,0c-.2,0-.3.2-.3.4s0,.2.1.2c.2,0,.3-.2.3-.5h0Z"/>
  </g>
  <g>
    <path class="cls-3" d="M8,28.5c0,.2,0,.4,0,.6,0,.4.1.6.4.6s.4-.2.5-.5h2.8c-.3,1-1.1,2.1-3.5,2.1s-3.1-1.3-3.1-2.7.8-4,3.9-4c2.3,0,3.1,1.2,3.1,2.6s0,.8-.2,1.3h-3.8ZM9.2,27.2c0-.2,0-.4,0-.5,0-.3,0-.4-.3-.4s-.5.3-.6.9h.9Z"/>
    <path class="cls-3" d="M18.9,29.2c-.2.8-.3,1.6-.4,2h-2.8c0-.1,0-.3,0-.5-.5.5-1,.7-1.8.7s-1.7-.7-1.7-1.7.4-2.2,2.5-2.5c.6,0,1.2-.1,1.7-.2v-.4c.2-.4,0-.5-.2-.5-.3,0-.4.2-.5.5h-2.7c.3-1,.9-2,3.3-2s3.2.9,2.8,2.5l-.4,2.1ZM16.2,28.3c0,0-.2,0-.4,0-.4,0-.6.4-.6.9s0,.4.3.4c.3,0,.6-.3.7-1v-.3Z"/>
    <path class="cls-3" d="M26.1,30.4c-.4,2-1.3,3.1-3.7,3.1s-3-1.1-3-2.2h2.8c0,.2,0,.5.3.5s.5-.5.6-1l.2-.6c-.4.5-.8.6-1.5.6-1.2,0-1.9-.8-1.9-2.1s.9-4.1,3.1-4.1,1.2.4,1.3.7c0-.2,0-.4.1-.5h2.9c0,.3-.3,1.2-.5,2.1l-.7,3.5ZM22.9,28.6c0,.4,0,.5.3.5.5,0,.8-2,.8-2.3s0-.4-.3-.4c-.5,0-.9,1.7-.9,2.2Z"/>
    <path class="cls-3" d="M27,31.2l1.8-8.6h2.9l-1.8,8.6h-2.9Z"/>
    <path class="cls-3" d="M34.3,28.5c0,.2,0,.4,0,.6,0,.4.1.6.4.6s.4-.2.5-.5h2.8c-.3,1-1.1,2.1-3.5,2.1s-3.1-1.3-3.1-2.7.8-4,3.9-4c2.3,0,3.1,1.2,3.1,2.6s0,.8-.2,1.3h-3.8ZM35.4,27.2c0-.2,0-.4,0-.5,0-.3,0-.4-.3-.4s-.5.3-.6.9h.9Z"/>
    <path class="cls-3" d="M41,29.1c0,.4.2.6.5.6s.5,0,.5-.3-.2-.3-.7-.5c-1.5-.5-2.2-1-2.2-2.1s.7-2.2,3-2.2,3,1.2,3,2.1h-2.4c0-.3-.1-.6-.5-.6s-.4.1-.4.3.2.3.9.5c1.5.5,2.2,1.1,2.2,2.1s-.6,2.3-3.2,2.3-3.1-1.3-3-2.2h2.5Z"/>
  </g>
  <g>
    <path class="cls-1" d="M8,28.5c0,.2,0,.4,0,.6,0,.4.1.6.4.6s.4-.2.5-.5h2.8c-.3,1-1.1,2.1-3.5,2.1s-3.1-1.3-3.1-2.7.8-4,3.9-4c2.3,0,3.1,1.2,3.1,2.6s0,.8-.2,1.3h-3.8ZM9.2,27.2c0-.2,0-.4,0-.5,0-.3,0-.4-.3-.4s-.5.3-.6.9h.9Z"/>
    <path class="cls-1" d="M18.9,29.2c-.2.8-.3,1.6-.4,2h-2.8c0-.1,0-.3,0-.5-.5.5-1,.7-1.8.7s-1.7-.7-1.7-1.7.4-2.2,2.5-2.5c.6,0,1.2-.1,1.7-.2v-.4c.2-.4,0-.5-.2-.5-.3,0-.4.2-.5.5h-2.7c.3-1,.9-2,3.3-2s3.2.9,2.8,2.5l-.4,2.1ZM16.2,28.3c0,0-.2,0-.4,0-.4,0-.6.4-.6.9s0,.4.3.4c.3,0,.6-.3.7-1v-.3Z"/>
    <path class="cls-1" d="M26.1,30.4c-.4,2-1.3,3.1-3.7,3.1s-3-1.1-3-2.2h2.8c0,.2,0,.5.3.5s.5-.5.6-1l.2-.6c-.4.5-.8.6-1.5.6-1.2,0-1.9-.8-1.9-2.1s.9-4.1,3.1-4.1,1.2.4,1.3.7c0-.2,0-.4.1-.5h2.9c0,.3-.3,1.2-.5,2.1l-.7,3.5ZM22.9,28.6c0,.4,0,.5.3.5.5,0,.8-2,.8-2.3s0-.4-.3-.4c-.5,0-.9,1.7-.9,2.2Z"/>
    <path class="cls-1" d="M27,31.2l1.8-8.6h2.9l-1.8,8.6h-2.9Z"/>
    <path class="cls-1" d="M34.3,28.5c0,.2,0,.4,0,.6,0,.4.1.6.4.6s.4-.2.5-.5h2.8c-.3,1-1.1,2.1-3.5,2.1s-3.1-1.3-3.1-2.7.8-4,3.9-4c2.3,0,3.1,1.2,3.1,2.6s0,.8-.2,1.3h-3.8ZM35.4,27.2c0-.2,0-.4,0-.5,0-.3,0-.4-.3-.4s-.5.3-.6.9h.9Z"/>
    <path class="cls-1" d="M41,29.1c0,.4.2.6.5.6s.5,0,.5-.3-.2-.3-.7-.5c-1.5-.5-2.2-1-2.2-2.1s.7-2.2,3-2.2,3,1.2,3,2.1h-2.4c0-.3-.1-.6-.5-.6s-.4.1-.4.3.2.3.9.5c1.5.5,2.2,1.1,2.2,2.1s-.6,2.3-3.2,2.3-3.1-1.3-3-2.2h2.5Z"/>
  </g>
  <g>
    <path class="cls-5" d="M8,28.5c0,.2,0,.4,0,.6,0,.4.1.6.4.6s.4-.2.5-.5h2.8c-.3,1-1.1,2.1-3.5,2.1s-3.1-1.3-3.1-2.7.8-4,3.9-4c2.3,0,3.1,1.2,3.1,2.6s0,.8-.2,1.3h-3.8ZM9.2,27.2c0-.2,0-.4,0-.5,0-.3,0-.4-.3-.4s-.5.3-.6.9h.9Z"/>
    <path class="cls-5" d="M18.9,29.2c-.2.8-.3,1.6-.4,2h-2.8c0-.1,0-.3,0-.5-.5.5-1,.7-1.8.7s-1.7-.7-1.7-1.7.4-2.2,2.5-2.5c.6,0,1.2-.1,1.7-.2v-.4c.2-.4,0-.5-.2-.5-.3,0-.4.2-.5.5h-2.7c.3-1,.9-2,3.3-2s3.2.9,2.8,2.5l-.4,2.1ZM16.2,28.3c0,0-.2,0-.4,0-.4,0-.6.4-.6.9s0,.4.3.4c.3,0,.6-.3.7-1v-.3Z"/>
    <path class="cls-5" d="M26.1,30.4c-.4,2-1.3,3.1-3.7,3.1s-3-1.1-3-2.2h2.8c0,.2,0,.5.3.5s.5-.5.6-1l.2-.6c-.4.5-.8.6-1.5.6-1.2,0-1.9-.8-1.9-2.1s.9-4.1,3.1-4.1,1.2.4,1.3.7c0-.2,0-.4.1-.5h2.9c0,.3-.3,1.2-.5,2.1l-.7,3.5ZM22.9,28.6c0,.4,0,.5.3.5.5,0,.8-2,.8-2.3s0-.4-.3-.4c-.5,0-.9,1.7-.9,2.2Z"/>
    <path class="cls-5" d="M27,31.2l1.8-8.6h2.9l-1.8,8.6h-2.9Z"/>
    <path class="cls-5" d="M34.3,28.5c0,.2,0,.4,0,.6,0,.4.1.6.4.6s.4-.2.5-.5h2.8c-.3,1-1.1,2.1-3.5,2.1s-3.1-1.3-3.1-2.7.8-4,3.9-4c2.3,0,3.1,1.2,3.1,2.6s0,.8-.2,1.3h-3.8ZM35.4,27.2c0-.2,0-.4,0-.5,0-.3,0-.4-.3-.4s-.5.3-.6.9h.9Z"/>
    <path class="cls-5" d="M41,29.1c0,.4.2.6.5.6s.5,0,.5-.3-.2-.3-.7-.5c-1.5-.5-2.2-1-2.2-2.1s.7-2.2,3-2.2,3,1.2,3,2.1h-2.4c0-.3-.1-.6-.5-.6s-.4.1-.4.3.2.3.9.5c1.5.5,2.2,1.1,2.2,2.1s-.6,2.3-3.2,2.3-3.1-1.3-3-2.2h2.5Z"/>
  </g>
</svg>